<svg width="24" height="24" viewBox="0 0 24 24" fill="none" xmlns="http://www.w3.org/2000/svg">
<g clip-path="url(#clip0_1312_1035)">
<g clip-path="url(#clip1_1312_1035)">
<path d="M23.8281 12C23.8281 5.37258 18.4555 0 11.8281 0C5.2007 0 -0.171875 5.37258 -0.171875 12C-0.171875 17.9895 4.21633 22.954 9.95312 23.8542V15.4687H6.90625V12H9.95312V9.35625C9.95312 6.34875 11.7447 4.6875 14.4857 4.6875C15.7987 4.6875 17.1719 4.92187 17.1719 4.92187V7.875H15.6588C14.1681 7.875 13.7031 8.80008 13.7031 9.74906V12H17.0312L16.4992 15.4687H13.7031V23.8542C19.4399 22.954 23.8281 17.9895 23.8281 12Z" fill="#1877F2"/>
<path d="M16.4992 15.4688L17.0312 12H13.7031V9.74906C13.7031 8.80008 14.1681 7.875 15.6587 7.875H17.1719V4.92188C17.1719 4.92188 15.7987 4.6875 14.4857 4.6875C11.7447 4.6875 9.95312 6.34875 9.95312 9.35625V12H6.90625V15.4688H9.95312V23.8542C10.5641 23.9501 11.1902 24 11.8281 24C12.4661 24 13.0921 23.9501 13.7031 23.8542V15.4688H16.4992Z" fill="white"/>
</g>
</g>
<defs>
<clipPath id="clip0_1312_1035">
<rect width="24" height="24" fill="white"/>
</clipPath>
<clipPath id="clip1_1312_1035">
<rect width="24" height="24" fill="white" transform="translate(-0.171875)"/>
</clipPath>
</defs>
</svg>
