<svg width="24" height="24" viewBox="0 0 24 24" fill="none" xmlns="http://www.w3.org/2000/svg">
<g clip-path="url(#clip0_1312_1025)">
<path d="M23.9999 12.2758C23.9999 11.46 23.9324 10.6399 23.7885 9.8374H12.2406V14.4584H18.8535C18.5791 15.9487 17.6974 17.2671 16.4063 18.1049V21.1032H20.3516C22.6683 19.0132 23.9999 15.9267 23.9999 12.2758Z" fill="#4285F4"/>
<path d="M12.2407 24.0001C15.5427 24.0001 18.3273 22.9375 20.3562 21.1032L16.4109 18.1048C15.3132 18.8368 13.8962 19.2513 12.2452 19.2513C9.05119 19.2513 6.34303 17.1392 5.37134 14.2996H1.30011V17.3905C3.37846 21.4427 7.61164 24.0001 12.2407 24.0001Z" fill="#34A853"/>
<path d="M5.36688 14.2995C4.85404 12.8091 4.85404 11.1953 5.36688 9.70496V6.61401H1.30015C-0.436312 10.0048 -0.436312 13.9996 1.30015 17.3904L5.36688 14.2995Z" fill="#FBBC04"/>
<path d="M12.2407 4.74893C13.9861 4.72247 15.6731 5.36623 16.9372 6.54794L20.4326 3.12188C18.2193 1.08477 15.2817 -0.0351984 12.2407 7.62441e-05C7.61164 7.62441e-05 3.37846 2.55749 1.30011 6.61408L5.36684 9.70502C6.33404 6.861 9.04669 4.74893 12.2407 4.74893Z" fill="#EA4335"/>
</g>
<defs>
<clipPath id="clip0_1312_1025">
<rect width="24" height="24" fill="white"/>
</clipPath>
</defs>
</svg>
