<svg width="143" height="20" viewBox="0 0 143 20" fill="none" xmlns="http://www.w3.org/2000/svg">
<path d="M0 0V19.6078H12.7731V16.1064H4.20168V0H0Z" fill="#F90043"/>
<path d="M16.6918 0V19.6078H20.8935V0H16.6918Z" fill="#F90043"/>
<path d="M29.2113 0H24.7015L31.8444 19.6078H36.1301L43.357 0H39.0432C38.343 1.96078 37.6987 3.86555 37.0825 5.68628C36.8023 6.47059 36.5502 7.28291 36.2701 8.09524C35.99 8.93558 35.7099 9.71989 35.4578 10.5042C35.2057 11.2885 34.9816 12.0448 34.7575 12.7451C34.5334 13.4454 34.3374 14.0616 34.1693 14.5658H34.1133C33.9452 14.0616 33.7491 13.4454 33.525 12.7451C33.3009 12.0448 33.0488 11.2885 32.7967 10.5042C32.5166 9.71989 32.2645 8.93558 31.9844 8.09524C31.7043 7.28291 31.4242 6.47059 31.1721 5.68628C30.5558 3.86555 29.8836 1.96078 29.2113 0Z" fill="#F90043"/>
<path d="M47.1759 19.6078H60.6773V16.1345H51.3215V11.2605H59.893V7.78712H51.3215V3.47339H60.5372V0H47.1759V19.6078Z" fill="#F90043"/>
<path d="M65.2081 0V19.6078H72.519C74.0036 19.6078 75.3482 19.4118 76.5246 18.9636C77.7011 18.5154 78.7095 17.8992 79.5498 17.0588C80.3902 16.2185 81.0064 15.2101 81.4546 13.9776C81.9028 12.7731 82.1269 11.3726 82.1269 9.80392C82.1269 8.2353 81.9028 6.86275 81.4546 5.63025C81.0064 4.42577 80.3902 3.41737 79.5498 2.57703C78.7095 1.7367 77.7011 1.12045 76.5246 0.672269C75.3482 0.22409 74.0036 0 72.519 0H65.2081ZM77.7851 9.80392C77.7851 10.7563 77.6731 11.6247 77.449 12.409C77.2249 13.1933 76.9168 13.8375 76.4686 14.3978C76.0204 14.958 75.4882 15.4062 74.8159 15.6863C74.1437 15.9944 73.3313 16.1345 72.407 16.1345H69.4378V3.47339H72.407C73.3313 3.47339 74.1437 3.64146 74.8159 3.92157C75.4882 4.22969 76.0204 4.64986 76.4686 5.21009C76.9168 5.77031 77.2249 6.44258 77.449 7.22689C77.6731 8.0112 77.7851 8.85154 77.7851 9.80392Z" fill="#F90043"/>
<path d="M94.4728 20C95.8173 20 96.9938 19.8319 98.0022 19.4958C98.9826 19.1597 99.7949 18.6555 100.439 17.9832C101.055 17.3389 101.532 16.5546 101.84 15.6022C102.148 14.6499 102.316 13.5854 102.316 12.381V0H98.1143V12.409C98.1143 13.6134 97.8061 14.5938 97.2179 15.3782C96.6016 16.1625 95.7053 16.5266 94.4728 16.5266C93.2403 16.5266 92.3159 16.1625 91.7277 15.3782C91.1115 14.5938 90.8313 13.6134 90.8313 12.409V0H86.6297V12.381C86.6297 13.5854 86.7697 14.6499 87.0779 15.6022C87.386 16.5546 87.8622 17.3389 88.5064 17.9832C89.1227 18.6555 89.935 19.1597 90.9434 19.4958C91.9238 19.8319 93.1003 20 94.4728 20Z" fill="#F90043"/>
<path d="M107.646 0V19.6078H111.624V6.72269H111.708C111.96 7.17087 112.268 7.67507 112.632 8.2633C112.996 8.85154 113.388 9.4958 113.809 10.1681C114.229 10.8403 114.677 11.5686 115.125 12.2969C115.573 13.0252 116.022 13.7535 116.47 14.4258C117.478 16.0784 118.543 17.8151 119.663 19.6078H124.033V0H120.055V12.8852H119.971C119.719 12.493 119.411 12.0168 119.075 11.4286C118.711 10.8683 118.318 10.2241 117.898 9.55182C117.478 8.87955 117.03 8.17927 116.582 7.45098C116.134 6.72269 115.685 5.9944 115.265 5.26611C114.229 3.61345 113.136 1.84874 112.016 0H107.646Z" fill="#F90043"/>
<path d="M129.453 19.6078H142.955V16.1345H133.599V11.2605H142.17V7.78712H133.599V3.47339H142.815V0H129.453V19.6078Z" fill="#F90043"/>
</svg>
