<svg width="100" height="100" viewBox="0 0 100 100" fill="none" xmlns="http://www.w3.org/2000/svg">
<path d="M19.5217 30.3665C19.5217 31.9059 18.2723 33.1553 16.7329 33.1553H2.78882C1.24939 33.1553 0 31.9059 0 30.3665C0 28.827 1.24939 27.5776 2.78882 27.5776H16.7329C18.2723 27.5776 19.5217 28.827 19.5217 30.3665ZM13.9441 44.3105C13.9441 45.85 12.6947 47.0993 11.1553 47.0993H2.78882C1.24939 47.0993 0 45.85 0 44.3105C0 42.7711 1.24939 41.5217 2.78882 41.5217H11.1553C12.6947 41.5217 13.9441 42.7711 13.9441 44.3105ZM8.36645 58.2546C8.36645 59.7968 7.11706 61.0434 5.57763 61.0434H2.78882C1.24939 61.0434 0 59.7968 0 58.2546C0 56.7124 1.24939 55.4658 2.78882 55.4658H5.57763C7.11706 55.4658 8.36645 56.7124 8.36645 58.2546Z" fill="#D1D1DB"/>
<path d="M90.0815 66.6211C88.3357 72.7816 81.9242 77.7763 75.7637 77.7763H19.9874C13.8269 77.7763 10.2489 72.7816 11.9947 66.6211L21.471 33.1553C23.2168 26.9948 29.6255 22 35.786 22H91.5624C97.7229 22 101.304 26.9948 99.5579 33.1553L90.0815 66.6211Z" fill="#F2F2F7"/>
<path d="M48.3469 46.0843L12.2262 72.0565C12.1314 72.1346 12.0756 72.2322 11.9891 72.3103C12.4883 73.9 13.4337 75.2191 14.7556 76.17C14.8532 76.1059 14.9592 76.078 15.054 76.0027L51.1748 50.0277C52.572 48.9373 53.074 47.1747 52.2931 46.0843C51.5094 44.9939 49.7469 44.9939 48.3469 46.0843ZM86.8605 72.3103C86.8186 72.2322 86.8158 72.1346 86.7656 72.0593L65.3643 46.0843C64.5806 44.9939 62.8181 44.9939 61.4153 46.0843C60.0181 47.1747 59.5189 48.9373 60.2998 50.0277L81.7067 76.0027C81.7569 76.0752 81.849 76.1059 81.9075 76.17C83.7649 75.2218 85.4605 73.9 86.8605 72.3103Z" fill="#D1D1DB"/>
<path d="M99.5579 33.1553C101.304 26.9948 97.7228 22 91.5623 22H35.786C29.6255 22 23.2168 26.9948 21.471 33.1553L21.4125 33.3616L45.9708 56.9327C50.5193 61.3502 56.5348 61.0462 61.9368 57.9674L98.8244 35.7572L99.5579 33.1553Z" fill="#D1D1DB"/>
<path d="M91.5624 22H35.7861C31.3853 22 26.8925 24.5685 24.0256 28.2693L49.7302 52.7941C51.819 54.7993 56.5181 54.8271 59.9261 52.7941L99.7894 28.3418C99.0476 24.602 95.991 22 91.5624 22Z" fill="#F2F2F7"/>
</svg>
